<?xml version="1.0" encoding="UTF-8"?>
<svg width="260px" height="292px" viewBox="0 0 260 292" version="1.1" xmlns="http://www.w3.org/2000/svg" xmlns:xlink="http://www.w3.org/1999/xlink">
    <title>charity_graphic</title>
    <g id="Page-1" stroke="none" stroke-width="1" fill="none" fill-rule="evenodd">
        <g id="Join-RTO-–-giving-Tuesday" transform="translate(-991.000000, -684.000000)" fill-rule="nonzero">
            <g id="charity_graphic" transform="translate(991.000000, 684.993993)">
                <circle id="Oval" fill="#442D8B" cx="24.5" cy="162.506007" r="6.5"></circle>
                <polygon id="Path" fill="#891C56" points="247 195.006007 107 195.006007 131.051864 169.006007 222.948136 169.006007"></polygon>
                <polygon id="Rectangle" fill="#BEEACC" transform="translate(187.240993, 154.733994) rotate(-30.034133) translate(-187.240993, -154.733994) " points="120.697986 125.253632 253.783999 125.253632 253.783999 184.214357 120.697986 184.214357"></polygon>
                <g id="Group" transform="translate(134.000000, 145.006007)">
                    <path d="M0,16.1183829 C0.89758258,17.5981156 2.80494556,18.1672436 4.26351725,17.2566389 L5.94648459,16.2322085 C5.04890201,14.7524758 3.14153903,14.1833479 1.68296734,15.0939526 L0,16.1183829 Z" id="Path" fill="#8FCEA5"></path>
                    <path d="M8.9758258,11.9068361 L8.41483669,12.2483128 C6.95626499,13.1589176 6.39527588,15.0939526 7.29285846,16.5736853 L9.76121056,20.7852322 L13.1271452,18.8501971 C14.5857169,17.9395924 15.146706,16.0045573 14.2491235,14.5248247 L13.3515409,13.045092 C12.4539583,11.5653593 10.5465953,11.1100569 8.9758258,11.9068361 Z" id="Path" fill="#ED1C24"></path>
                    <path d="M8.75143015,19.3054995 L10.6587931,22.7202672 L6.5074737,25.2244302 C5.04890201,26.135035 3.02934121,25.565907 2.24395645,24.0861743 L1.90736298,23.4032208 C1.0097804,21.9234881 1.57076951,19.8746275 3.02934121,19.0778483 L4.4879129,18.1672436 C5.94648459,17.2566389 7.74164975,17.8257668 8.75143015,19.1916739 C8.75143015,19.1916739 8.75143015,19.1916739 8.75143015,19.1916739 C8.75143015,19.1916739 8.75143015,19.1916739 8.75143015,19.1916739 L8.75143015,19.3054995" id="Path" fill="#DC1E8A"></path>
                    <path d="M17.5028603,18.5087204 L17.1662668,17.9395924 C16.2686843,16.4598597 14.3613213,15.8907318 12.9027496,16.8013365 L8.75143015,19.3054995 L10.6587931,22.7202672 C11.5563757,24.1999999 13.4637387,24.7691279 14.9223104,23.8585231 L16.3808821,22.9479184 C17.8394538,21.9234881 18.4004429,19.988453 17.5028603,18.5087204 Z" id="Path" fill="#DC1E8A"></path>
                    <path d="M6.39527588,27.3871165 L6.05868241,26.8179885 C5.16109983,25.3382558 5.72208895,23.2893952 7.18066064,22.4926161 L11.3319801,19.988453 L13.2393431,23.4032208 C14.1369256,24.8829535 13.5759365,26.9318141 12.1173648,27.7285933 L10.6587931,28.639198 C9.20022144,29.4359771 7.29285846,28.8668492 6.39527588,27.3871165 Z" id="Path" fill="#ED1C24"></path>
                    <path d="M11.4441779,19.8746275 L13.0149474,18.9640227 C14.0247278,18.3948948 14.5857169,17.3704644 14.5857169,16.2322085 C14.0247278,16.2322085 13.4637387,16.3460341 12.9027496,16.6875109 L8.75143015,19.1916739 L8.86362798,19.3054995 L9.76121056,20.8990578 L11.4441779,19.8746275 Z" id="Path" fill="#891C56"></path>
                    <path d="M10.6587931,22.7202672 L10.5465953,22.6064416 L9.64901273,21.0128834 L7.18066064,22.4926161 C6.05868241,23.1755696 5.4976933,24.4276511 5.60989112,25.565907 C5.94648459,25.4520814 6.17088024,25.3382558 6.39527588,25.2244302 L10.6587931,22.7202672 Z" id="Path" fill="#F391BC"></path>
                    <path d="M11.4441779,19.8746275 L9.76121056,20.8990578 L10.6587931,22.4926161 C11.3319801,23.630872 12.5661561,24.1999999 13.6881343,24.0861743 C13.5759365,23.7446976 13.4637387,23.5170464 13.3515409,23.2893952 L11.4441779,19.8746275 Z" id="Path" fill="#8FCEA5"></path>
                    <g transform="translate(15.483300, 0.000000)" fill="#442D8B">
                        <path d="M16.7174755,6.55703327 C14.9223104,7.58146359 13.1271452,6.78468445 12.1173648,5.19112617 C11.2197822,3.59756789 11.3319801,1.54870725 13.2393431,0.524276924 C13.5759365,0.296625741 13.91253,0.18280015 14.3613213,0.0689745588 C16.4930799,-0.386327807 17.727256,1.54870725 17.9516516,1.89018402 C18.5126407,2.91461434 18.6248385,4.05287026 18.2882451,4.96347499 C17.9516516,5.64642853 17.3906625,6.21555649 16.7174755,6.55703327 Z M15.146706,1.43488165 C14.8101126,1.32105606 14.2491235,1.32105606 13.91253,1.54870725 C13.0149474,2.00400961 12.9027496,3.14226552 13.5759365,4.16669585 C14.3613213,5.53260294 15.3711017,5.64642853 16.0442886,5.19112617 C16.7174755,4.7358238 17.1662668,3.82521907 16.4930799,2.68696316 C16.2686843,2.1178352 15.7076951,1.66253284 15.146706,1.43488165 Z" id="Shape"></path>
                        <path d="M10.097804,2.45931198 L5.4976933,5.19112617 C5.38549548,5.30495176 5.38549548,5.41877735 5.38549548,5.53260294 L5.83428677,6.21555649 C5.94648459,6.32938208 6.05868241,6.32938208 6.17088024,6.32938208 L7.62945193,5.53260294 L7.85384757,5.41877735 L7.9660454,5.64642853 L10.4343975,9.85797541 C10.5465953,9.97180101 10.6587931,9.97180101 10.770991,9.97180101 L11.7807714,9.40267305 C11.8929692,9.28884746 11.8929692,9.17502187 11.8929692,9.06119627 L9.42461709,4.84964939 L9.31241927,4.62199821 L9.53681491,4.50817262 L10.9953866,3.71139348 C11.1075844,3.59756789 11.1075844,3.4837423 11.1075844,3.36991671 L10.6587931,2.68696316 C10.4343975,2.45931198 10.2100018,2.34548639 10.097804,2.45931198 Z" id="Path"></path>
                        <path d="M7.9660454,13.045092 L4.26351725,15.2077782 C4.15131943,15.3216038 4.15131943,15.4354294 4.15131943,15.549255 L7.18066064,20.8990578 C7.29285846,21.0128834 7.40505628,21.0128834 7.51725411,21.0128834 L11.2197822,18.8501971 C11.3319801,18.7363715 11.3319801,18.6225459 11.3319801,18.5087204 L10.8831888,17.8257668 C10.770991,17.7119412 10.6587931,17.7119412 10.5465953,17.7119412 L8.30263886,19.0778483 L8.07824322,19.1916739 L7.9660454,18.9640227 L7.40505628,18.053418 L7.29285846,17.8257668 L7.51725411,17.7119412 L9.64901273,16.4598597 C9.76121056,16.3460341 9.76121056,16.2322085 9.76121056,16.1183829 L9.42461709,15.4354294 C9.31241927,15.3216038 9.20022144,15.3216038 9.08802362,15.3216038 L6.95626499,16.5736853 L6.73186935,16.6875109 L6.61967153,16.5736853 L6.28307806,15.8907318 L6.17088024,15.6630806 L6.39527588,15.549255 L8.75143015,14.1833479 C8.86362798,14.0695223 8.86362798,13.9556967 8.86362798,13.8418711 L8.41483669,13.1589176 C8.19044104,13.045092 8.07824322,13.045092 7.9660454,13.045092 Z" id="Path"></path>
                        <path d="M17.054069,15.0939526 L16.2686843,14.6386503 L14.9223104,13.8418711 C14.9223104,13.8418711 14.9223104,13.8418711 14.9223104,13.8418711 L14.6979147,13.7280455 C14.6979147,13.6142199 14.8101126,13.6142199 14.9223104,13.5003943 C14.9223104,13.5003943 14.9223104,13.5003943 14.9223104,13.5003943 C14.9223104,13.5003943 14.9223104,13.5003943 14.9223104,13.3865687 C14.9223104,13.3865687 14.9223104,13.3865687 14.9223104,13.3865687 C14.9223104,13.3865687 14.9223104,13.3865687 14.9223104,13.2727432 C14.9223104,13.2727432 14.9223104,13.2727432 14.9223104,13.2727432 C14.9223104,13.2727432 14.9223104,13.1589176 15.0345082,13.1589176 C15.0345082,13.1589176 15.0345082,13.1589176 15.0345082,13.1589176 C15.0345082,13.1589176 15.0345082,13.045092 15.0345082,13.045092 C15.0345082,13.045092 15.0345082,13.045092 15.0345082,13.045092 C15.0345082,13.045092 15.0345082,13.045092 15.0345082,12.9312664 C15.0345082,12.9312664 15.0345082,12.9312664 15.0345082,12.9312664 C15.0345082,12.9312664 15.0345082,12.8174408 15.0345082,12.8174408 C15.0345082,12.8174408 15.0345082,12.8174408 15.0345082,12.8174408 C15.0345082,12.8174408 15.0345082,12.7036152 15.0345082,12.7036152 C15.0345082,12.7036152 15.0345082,12.7036152 15.0345082,12.7036152 C15.0345082,12.7036152 15.0345082,12.5897896 15.0345082,12.5897896 C15.0345082,12.5897896 15.0345082,12.5897896 15.0345082,12.5897896 C15.0345082,12.5897896 15.0345082,12.475964 15.0345082,12.475964 C15.0345082,12.475964 15.0345082,12.475964 15.0345082,12.475964 C15.0345082,12.475964 15.0345082,12.3621384 15.0345082,12.3621384 C15.0345082,12.3621384 15.0345082,12.3621384 15.0345082,12.2483128 C15.0345082,12.2483128 15.0345082,12.1344872 15.0345082,12.1344872 C15.0345082,12.1344872 15.0345082,12.1344872 15.0345082,12.0206616 C15.0345082,12.0206616 15.0345082,11.9068361 15.0345082,11.9068361 C15.0345082,11.9068361 15.0345082,11.9068361 15.0345082,11.7930105 C15.0345082,11.6791849 14.9223104,11.6791849 14.9223104,11.5653593 C14.5857169,10.9962313 14.1369256,10.6547546 13.6881343,10.540929 C12.7905518,10.3132778 12.1173648,10.6547546 11.4441779,10.9962313 L9.08802362,12.3621384 C8.9758258,12.475964 8.9758258,12.5897896 8.9758258,12.7036152 L12.005167,18.053418 C12.1173648,18.1672436 12.2295626,18.1672436 12.3417605,18.1672436 L13.3515409,17.5981156 C13.4637387,17.48429 13.4637387,17.3704644 13.4637387,17.2566389 L12.5661561,15.549255 L12.4539583,15.3216038 L12.6783539,15.2077782 L13.2393431,14.8663014 L13.3515409,14.7524758 L13.4637387,14.8663014 L13.4637387,14.8663014 L14.4735191,15.549255 L15.4832995,16.2322085 C15.5954973,16.2322085 15.5954973,16.2322085 15.7076951,16.2322085 L16.8296734,15.549255 C17.2784647,15.4354294 17.2784647,15.2077782 17.054069,15.0939526 Z M13.2393431,13.6142199 L12.2295626,14.1833479 L12.005167,14.2971735 L11.8929692,14.0695223 L11.2197822,12.9312664 L11.1075844,12.7036152 L11.3319801,12.5897896 L12.3417605,12.0206616 C12.6783539,11.9068361 13.2393431,11.5653593 13.5759365,12.3621384 C14.0247278,13.045092 13.4637387,13.3865687 13.2393431,13.6142199 Z" id="Shape"></path>
                        <path d="M8.07824322,10.9962313 L7.29285846,10.540929 L5.94648459,9.74414982 C5.94648459,9.74414982 5.94648459,9.74414982 5.94648459,9.74414982 L5.72208895,9.63032423 C5.72208895,9.51649864 5.83428677,9.51649864 5.94648459,9.40267305 C5.94648459,9.40267305 5.94648459,9.40267305 5.94648459,9.40267305 C5.94648459,9.40267305 5.94648459,9.40267305 5.94648459,9.28884746 C5.94648459,9.28884746 5.94648459,9.28884746 5.94648459,9.28884746 C5.94648459,9.28884746 5.94648459,9.28884746 5.94648459,9.17502187 C5.94648459,9.17502187 5.94648459,9.17502187 5.94648459,9.17502187 C5.94648459,9.17502187 5.94648459,9.06119627 6.05868241,9.06119627 C6.05868241,9.06119627 6.05868241,9.06119627 6.05868241,9.06119627 C6.05868241,9.06119627 6.05868241,8.94737068 6.05868241,8.94737068 C6.05868241,8.94737068 6.05868241,8.94737068 6.05868241,8.94737068 C6.05868241,8.94737068 6.05868241,8.94737068 6.05868241,8.83354509 C6.05868241,8.83354509 6.05868241,8.83354509 6.05868241,8.83354509 C6.05868241,8.83354509 6.05868241,8.7197195 6.05868241,8.7197195 C6.05868241,8.7197195 6.05868241,8.7197195 6.05868241,8.7197195 C6.05868241,8.7197195 6.05868241,8.60589391 6.05868241,8.60589391 C6.05868241,8.60589391 6.05868241,8.60589391 6.05868241,8.60589391 C6.05868241,8.60589391 6.05868241,8.49206832 6.05868241,8.49206832 C6.05868241,8.49206832 6.05868241,8.49206832 6.05868241,8.49206832 C6.05868241,8.49206832 6.05868241,8.37824273 6.05868241,8.37824273 C6.05868241,8.37824273 6.05868241,8.37824273 6.05868241,8.37824273 C6.05868241,8.37824273 6.05868241,8.26441714 6.05868241,8.26441714 C6.05868241,8.26441714 6.05868241,8.26441714 6.05868241,8.15059154 C6.05868241,8.15059154 6.05868241,8.03676595 6.05868241,8.03676595 C6.05868241,8.03676595 6.05868241,8.03676595 6.05868241,7.92294036 C6.05868241,7.92294036 6.05868241,7.80911477 6.05868241,7.80911477 C6.05868241,7.80911477 6.05868241,7.80911477 6.05868241,7.69528918 C6.05868241,7.58146359 5.94648459,7.58146359 5.94648459,7.467638 C5.60989112,6.89851004 5.16109983,6.55703327 4.71230854,6.44320767 C3.81472596,6.21555649 3.14153903,6.55703327 2.46835209,6.89851004 L0.112197822,8.26441714 C0,8.37824273 0,8.49206832 0,8.60589391 L3.02934121,13.9556967 C3.14153903,14.0695223 3.25373685,14.0695223 3.36593467,14.0695223 L4.37571508,13.5003943 C4.4879129,13.3865687 4.4879129,13.2727432 4.4879129,13.1589176 L3.59033032,11.4515337 L3.4781325,11.2238825 L3.70252814,11.1100569 L4.26351725,10.7685801 L4.37571508,10.6547546 L4.4879129,10.7685801 L4.4879129,10.7685801 L5.4976933,11.4515337 L6.5074737,12.1344872 C6.61967153,12.1344872 6.61967153,12.1344872 6.73186935,12.1344872 L7.85384757,11.4515337 C8.19044104,11.3377081 8.19044104,11.1100569 8.07824322,10.9962313 Z M4.15131943,9.51649864 L3.14153903,10.0856266 L2.91714338,10.1994522 L2.80494556,9.97180101 L2.13175863,8.83354509 L2.13175863,8.60589391 L2.35615427,8.49206832 L3.36593467,7.92294036 C3.70252814,7.80911477 4.26351725,7.467638 4.60011072,8.26441714 C5.04890201,8.94737068 4.37571508,9.40267305 4.15131943,9.51649864 Z" id="Shape"></path>
                        <path d="M20.7565972,13.5003943 C18.961432,14.5248247 17.1662668,13.7280455 16.1564864,12.1344872 C15.2589039,10.540929 15.3711017,8.49206832 17.2784647,7.467638 C17.6150581,7.23998681 17.9516516,7.12616122 18.4004429,7.01233563 C20.5322015,6.55703327 21.7663776,8.49206832 21.9907732,8.83354509 C22.5517623,9.85797541 22.6639601,10.9962313 22.3273667,11.9068361 C21.8785754,12.7036152 21.3175863,13.1589176 20.7565972,13.5003943 Z M19.1858276,8.49206832 C18.8492342,8.37824273 18.2882451,8.37824273 17.9516516,8.60589391 C17.054069,9.06119627 16.9418712,10.1994522 17.6150581,11.2238825 C18.4004429,12.5897896 19.4102233,12.7036152 20.0834102,12.2483128 C20.7565972,11.7930105 21.2053884,10.8824057 20.5322015,9.74414982 C20.195608,9.17502187 19.7468168,8.60589391 19.1858276,8.49206832 Z" id="Shape"></path>
                    </g>
                </g>
                <polygon id="Rectangle" fill="#FFFFFF" transform="translate(190.688165, 160.308155) rotate(-30.034133) translate(-190.688165, -160.308155) " points="133.028876 154.876072 248.347454 154.876072 248.347454 165.740237 133.028876 165.740237"></polygon>
                <polygon id="Rectangle" fill="#FFFFFF" transform="translate(206.823561, 132.002507) rotate(-30.034133) translate(-206.823561, -132.002507) " points="177.343198 125.268988 236.303924 125.268988 236.303924 138.736025 177.343198 138.736025"></polygon>
                <g id="Group" transform="translate(143.000000, 133.006007)" fill="#000000">
                    <path d="M4.07628129,50.2788123 C3.84982122,50.1660795 3.62336114,50.1660795 3.39690107,50.1660795 C3.170441,50.1660795 2.94398093,50.2788123 2.60429082,50.391545 C2.26460072,50.5042778 2.15137068,50.7297433 1.92491061,50.9552089 C1.69845054,51.1806744 1.5852205,51.4061399 1.5852205,51.7443382 C1.47199046,51.9698037 1.47199046,52.308002 1.5852205,52.5334675 C1.5852205,52.8716658 1.69845054,53.0971314 1.92491061,53.3225969 C2.03814064,53.5480624 2.26460072,53.7735279 2.49106079,53.9989935 C2.71752086,54.224459 2.94398093,54.3371917 3.170441,54.3371917 C3.39690107,54.4499245 3.73659118,54.4499245 3.96305125,54.4499245 C4.18951132,54.4499245 4.52920143,54.3371917 4.7556615,54.224459 C5.09535161,54.1117262 5.32181168,53.8862607 5.43504172,53.6607952 C5.54827175,53.4353296 5.66150179,53.2098641 5.66150179,52.8716658 L7.35995232,52.9843986 C7.24672229,53.4353296 7.13349225,53.9989935 6.79380215,54.3371917 C6.45411204,54.67539 6.11442193,55.1263211 5.66150179,55.3517866 C5.20858164,55.6899849 4.64243147,55.8027177 4.18951132,55.9154504 C3.73659118,56.0281832 3.170441,56.0281832 2.71752086,55.9154504 C2.26460072,55.8027177 1.81168057,55.6899849 1.47199046,55.3517866 C1.13230036,55.0135883 0.79261025,54.67539 0.452920143,54.224459 C0.226460072,53.7735279 0,53.3225969 0,52.7589331 C0,52.308002 0,51.857071 0.113230036,51.4061399 C0.226460072,50.9552089 0.566150179,50.5042778 0.79261025,50.1660795 C1.13230036,49.8278812 1.5852205,49.4896829 2.03814064,49.1514847 C2.26460072,49.0387519 2.37783075,48.9260191 2.60429082,48.9260191 C2.83075089,48.9260191 3.05721097,48.8132864 3.28367104,48.7005536 C3.51013111,48.7005536 3.73659118,48.5878208 3.96305125,48.7005536 C4.18951132,48.7005536 4.41597139,48.7005536 4.64243147,48.8132864 L4.07628129,50.2788123 Z" id="Path"></path>
                    <path d="M6.11442193,46.5586311 L7.69964243,49.3769502 L7.69964243,49.3769502 C7.69964243,49.2642174 7.69964243,49.1514847 7.69964243,49.0387519 C7.69964243,48.9260191 7.81287247,48.8132864 7.81287247,48.7005536 C7.9261025,48.5878208 7.9261025,48.4750881 8.03933254,48.3623553 C8.15256257,48.2496225 8.26579261,48.1368898 8.49225268,48.024157 C8.83194279,47.7986915 9.1716329,47.6859587 9.39809297,47.6859587 C9.62455304,47.6859587 9.96424315,47.6859587 10.0774732,47.7986915 C10.3039333,47.9114243 10.5303933,48.024157 10.6436234,48.2496225 C10.7568534,48.4750881 10.9833135,48.7005536 11.0965435,48.9260191 L12.3420739,51.1806744 L10.9833135,51.9698037 L9.85101311,49.940614 C9.73778308,49.8278812 9.73778308,49.7151485 9.62455304,49.6024157 C9.511323,49.4896829 9.39809297,49.3769502 9.39809297,49.2642174 C9.28486293,49.1514847 9.1716329,49.1514847 9.05840286,49.1514847 C8.94517282,49.1514847 8.71871275,49.1514847 8.60548272,49.2642174 C8.37902265,49.3769502 8.26579261,49.4896829 8.26579261,49.6024157 C8.15256257,49.7151485 8.15256257,49.8278812 8.15256257,49.940614 C8.15256257,50.0533468 8.15256257,50.1660795 8.26579261,50.2788123 C8.26579261,50.391545 8.37902265,50.5042778 8.49225268,50.7297433 L9.62455304,52.7589331 L8.26579261,53.5480624 L4.64243147,47.2350277 L6.11442193,46.5586311 Z" id="Path"></path>
                    <path d="M16.0786651,48.5878208 L16.0786651,48.5878208 C16.0786651,48.9260191 15.965435,49.1514847 15.738975,49.3769502 C15.5125149,49.6024157 15.2860548,49.8278812 15.0595948,49.940614 C14.8331347,50.0533468 14.6066746,50.1660795 14.3802145,50.1660795 C14.1537545,50.1660795 13.9272944,50.2788123 13.7008343,50.1660795 C13.4743743,50.1660795 13.3611442,50.0533468 13.1346841,49.940614 C12.9082241,49.8278812 12.794994,49.7151485 12.681764,49.4896829 C12.568534,49.2642174 12.4553039,49.0387519 12.4553039,48.8132864 C12.4553039,48.5878208 12.4553039,48.3623553 12.568534,48.2496225 C12.681764,48.024157 12.794994,47.9114243 13.0214541,47.6859587 C13.2479142,47.4604932 13.3611442,47.3477604 13.5876043,47.2350277 C13.8140644,47.1222949 14.0405244,46.8968294 14.2669845,46.7840966 C14.4934446,46.6713639 14.7199046,46.5586311 14.8331347,46.4458983 C14.7199046,46.2204328 14.4934446,46.1077001 14.2669845,46.1077001 C14.0405244,46.1077001 13.8140644,46.1077001 13.5876043,46.2204328 C13.3611442,46.3331656 13.1346841,46.5586311 13.0214541,46.6713639 C12.9082241,46.8968294 12.794994,47.1222949 12.681764,47.3477604 L11.5494636,47.1222949 C11.6626937,46.7840966 11.8891538,46.4458983 12.1156138,46.1077001 C12.3420739,45.7695018 12.681764,45.5440362 13.0214541,45.3185707 C13.4743743,45.0931052 13.8140644,44.9803724 14.0405244,44.8676397 C14.2669845,44.7549069 14.6066746,44.8676397 14.8331347,44.8676397 C15.0595948,44.9803724 15.2860548,45.0931052 15.5125149,45.3185707 C15.738975,45.5440362 15.965435,45.7695018 16.0786651,46.1077001 L17.3241955,48.1368898 L16.0786651,48.8132864 L16.0786651,48.5878208 Z M14.9463647,47.4604932 C14.8331347,47.573226 14.7199046,47.573226 14.6066746,47.6859587 C14.4934446,47.7986915 14.3802145,47.9114243 14.1537545,48.024157 C14.0405244,48.1368898 13.9272944,48.2496225 13.9272944,48.3623553 C13.9272944,48.4750881 13.9272944,48.5878208 13.9272944,48.8132864 C14.0405244,48.9260191 14.1537545,49.0387519 14.3802145,49.0387519 C14.6066746,49.0387519 14.7199046,49.0387519 14.8331347,48.9260191 C14.9463647,48.8132864 15.0595948,48.8132864 15.1728248,48.7005536 C15.2860548,48.5878208 15.3992849,48.4750881 15.3992849,48.3623553 C15.5125149,48.2496225 15.5125149,48.1368898 15.5125149,48.024157 C15.5125149,47.9114243 15.5125149,47.7986915 15.3992849,47.6859587 L15.2860548,47.4604932 L14.9463647,47.4604932 Z" id="Shape"></path>
                    <path d="M16.0786651,43.8530448 L17.4374255,43.0639155 L17.7771156,43.740312 L17.7771156,43.740312 C17.7771156,43.4021137 17.8903456,43.1766482 18.0035757,42.8384499 C18.1168057,42.6129844 18.3432658,42.3875189 18.6829559,42.2747861 C18.7961859,42.2747861 18.7961859,42.1620533 18.909416,42.1620533 C19.022646,42.1620533 19.022646,42.0493206 19.135876,42.0493206 L19.8152563,43.1766482 C19.7020262,43.1766482 19.5887962,43.289381 19.4755662,43.289381 C19.3623361,43.289381 19.2491061,43.4021137 19.135876,43.4021137 C18.909416,43.5148465 18.6829559,43.740312 18.5697259,43.8530448 C18.4564958,43.9657776 18.3432658,44.1912431 18.3432658,44.3039758 C18.3432658,44.4167086 18.3432658,44.6421741 18.4564958,44.8676397 C18.5697259,45.0931052 18.5697259,45.2058379 18.6829559,45.4313035 L19.7020262,47.1222949 L18.3432658,47.9114243 L16.0786651,43.8530448 Z" id="Path"></path>
                    <path d="M18.909416,40.4710619 C18.7961859,40.2455964 18.7961859,40.0201309 18.7961859,39.7946653 C18.909416,39.5691998 19.022646,39.3437343 19.2491061,39.2310015 C19.4755662,39.1182687 19.7020262,39.1182687 19.9284863,39.1182687 C20.1549464,39.1182687 20.3814064,39.3437343 20.4946365,39.456467 C20.6078665,39.5691998 20.6078665,39.9073981 20.6078665,40.1328636 C20.4946365,40.3583291 20.3814064,40.5837947 20.1549464,40.6965274 C19.9284863,40.8092602 19.7020262,40.8092602 19.4755662,40.8092602 C19.2491061,40.8092602 19.022646,40.6965274 18.909416,40.4710619 Z M19.8152563,41.7111223 L21.1740167,40.921993 L23.5518474,44.9803724 L22.193087,45.7695018 L19.8152563,41.7111223 Z" id="Shape"></path>
                    <path d="M25.7032181,39.5691998 L24.4576877,40.2455964 L25.250298,41.5983895 C25.363528,41.7111223 25.363528,41.8238551 25.476758,41.9365878 C25.5899881,42.0493206 25.5899881,42.0493206 25.7032181,42.1620533 C25.8164482,42.1620533 25.9296782,42.2747861 26.0429082,42.1620533 C26.1561383,42.1620533 26.2693683,42.0493206 26.3825983,42.0493206 C26.4958284,42.0493206 26.4958284,41.9365878 26.6090584,41.8238551 C26.7222884,41.7111223 26.8355185,41.7111223 26.8355185,41.5983895 L27.4016687,42.6129844 C27.2884386,42.7257172 27.1752086,42.8384499 26.9487485,42.9511827 C26.8355185,43.0639155 26.6090584,43.1766482 26.4958284,43.289381 C26.2693683,43.4021137 26.0429082,43.5148465 25.8164482,43.6275793 C25.5899881,43.740312 25.363528,43.740312 25.1370679,43.740312 C24.9106079,43.740312 24.7973778,43.6275793 24.5709178,43.5148465 C24.3444577,43.4021137 24.2312277,43.289381 24.1179976,43.0639155 L22.9856973,41.1474585 L22.079857,41.5983895 L21.5137068,40.5837947 L22.4195471,40.1328636 L21.7401669,38.8928032 L23.0989273,38.1036739 L23.7783075,39.3437343 L25.0238379,38.6673377 L25.7032181,39.5691998 Z" id="Path"></path>
                    <path d="M31.0250298,41.4856568 C31.0250298,41.7111223 31.1382598,42.0493206 31.1382598,42.1620533 C31.1382598,42.3875189 31.1382598,42.6129844 31.0250298,42.7257172 C30.9117998,42.8384499 30.7985697,43.0639155 30.6853397,43.289381 C30.5721097,43.5148465 30.2324195,43.6275793 29.8927294,43.8530448 C29.5530393,44.0785103 29.2133492,44.1912431 28.7604291,44.3039758 L28.3075089,43.1766482 C28.533969,43.1766482 28.7604291,43.0639155 28.9868892,42.9511827 C29.1001192,42.8384499 29.2133492,42.7257172 29.3265793,42.7257172 C29.4398093,42.6129844 29.4398093,42.5002516 29.4398093,42.5002516 C29.4398093,42.3875189 29.4398093,42.2747861 29.4398093,42.1620533 C29.4398093,42.0493206 29.4398093,41.9365878 29.4398093,41.8238551 L29.4398093,41.4856568 L25.1370679,38.5546049 L26.6090584,37.7654756 L29.3265793,39.7946653 L29.3265793,39.7946653 L28.7604291,36.5254152 L30.1191895,35.7362859 L31.0250298,41.4856568 Z" id="Path"></path>
                    <path d="M34.5351609,35.8490186 C34.3087008,35.5108203 34.1954708,35.172622 34.1954708,34.8344238 C34.1954708,34.4962255 34.1954708,34.1580272 34.3087008,33.8198289 C34.4219309,33.4816306 34.6483909,33.2561651 34.874851,32.9179668 C35.1013111,32.6925013 35.4410012,32.4670357 35.7806913,32.2415702 C36.1203814,32.0161047 36.4600715,31.9033719 36.7997616,31.7906392 C37.1394517,31.6779064 37.4791418,31.6779064 37.8188319,31.7906392 C38.1585221,31.9033719 38.4982122,32.0161047 38.7246722,32.1288374 C38.9511323,32.354303 39.2908224,32.5797685 39.4040524,32.9179668 C39.5172825,33.2561651 39.7437426,33.5943634 39.7437426,33.9325617 C39.7437426,34.2707599 39.7437426,34.6089582 39.6305125,34.9471565 C39.5172825,35.2853548 39.2908224,35.5108203 39.0643623,35.8490186 C38.8379023,36.0744841 38.4982122,36.2999497 38.1585221,36.5254152 C37.8188319,36.7508807 37.4791418,36.8636135 37.1394517,36.9763463 C36.7997616,37.089079 36.4600715,37.089079 36.1203814,36.9763463 C35.7806913,36.8636135 35.4410012,36.7508807 35.2145411,36.638148 C34.988081,36.4126824 34.761621,36.1872169 34.5351609,35.8490186 Z M35.8939213,35.0598893 C36.1203814,35.3980876 36.3468415,35.5108203 36.5733015,35.6235531 C36.9129917,35.7362859 37.1394517,35.6235531 37.5923719,35.3980876 C37.932062,35.172622 38.1585221,34.9471565 38.2717521,34.6089582 C38.3849821,34.2707599 38.2717521,34.0452944 38.1585221,33.7070961 C38.045292,33.3688978 37.7056019,33.2561651 37.4791418,33.1434323 C37.1394517,33.0306995 36.9129917,33.1434323 36.4600715,33.3688978 C36.1203814,33.5943634 35.8939213,33.8198289 35.7806913,34.1580272 C35.6674613,34.4962255 35.6674613,34.8344238 35.8939213,35.0598893 Z" id="Shape"></path>
                    <path d="M40.0834327,31.3397081 L39.1775924,31.9033719 L38.6114422,30.8887771 L39.5172825,30.3251132 L39.0643623,29.6487167 C38.9511323,29.4232511 38.8379023,29.1977856 38.7246722,28.9723201 C38.6114422,28.7468546 38.6114422,28.521389 38.6114422,28.2959235 C38.6114422,28.070458 38.7246722,27.8449925 38.9511323,27.6195269 C39.1775924,27.3940614 39.4040524,27.1685959 39.7437426,26.9431303 C39.8569726,26.8303976 39.9702026,26.8303976 40.1966627,26.7176648 C40.3098927,26.6049321 40.4231228,26.6049321 40.6495828,26.6049321 L41.215733,27.7322597 C41.102503,27.7322597 40.9892729,27.7322597 40.9892729,27.8449925 C40.8760429,27.8449925 40.8760429,27.9577252 40.7628129,27.9577252 C40.5363528,28.070458 40.4231228,28.1831907 40.3098927,28.4086563 C40.1966627,28.521389 40.3098927,28.7468546 40.4231228,29.0850528 L40.7628129,29.7614494 L41.7818832,29.1977856 L42.3480334,30.2123805 L41.3289631,30.7760443 L43.1406436,33.8198289 L41.7818832,34.6089582 L40.0834327,31.3397081 Z" id="Path"></path>
                    <path d="M50.2741359,30.3251132 C50.2741359,30.5505788 50.3873659,30.8887771 50.3873659,31.0015098 C50.3873659,31.2269753 50.3873659,31.4524409 50.2741359,31.5651736 C50.1609058,31.6779064 50.0476758,31.9033719 49.9344458,32.1288374 C49.8212157,32.354303 49.4815256,32.4670357 49.1418355,32.6925013 C48.8021454,32.9179668 48.4624553,33.0306995 48.0095352,33.1434323 L47.556615,32.0161047 C47.7830751,32.0161047 48.0095352,31.9033719 48.2359952,31.7906392 C48.3492253,31.6779064 48.4624553,31.5651736 48.5756853,31.5651736 C48.6889154,31.4524409 48.6889154,31.3397081 48.6889154,31.3397081 C48.6889154,31.2269753 48.6889154,31.1142426 48.6889154,31.0015098 C48.6889154,30.8887771 48.6889154,30.7760443 48.6889154,30.6633115 L48.6889154,30.3251132 L44.386174,27.3940614 L45.8581645,26.6049321 L48.5756853,28.6341218 L48.5756853,28.6341218 L48.0095352,25.3648717 L49.3682956,24.5757423 L50.2741359,30.3251132 Z" id="Path"></path>
                    <path d="M51.0667461,26.3794665 C50.8402861,26.0412682 50.727056,25.70307 50.727056,25.3648717 C50.727056,25.0266734 50.727056,24.6884751 50.8402861,24.3502768 C50.9535161,24.0120785 51.1799762,23.786613 51.4064362,23.4484147 C51.6328963,23.2229492 51.9725864,22.9974836 52.3122765,22.7720181 C52.6519666,22.5465526 52.9916567,22.4338198 53.3313468,22.3210871 C53.6710369,22.2083543 54.0107271,22.2083543 54.3504172,22.3210871 C54.6901073,22.4338198 55.0297974,22.5465526 55.2562574,22.6592854 C55.4827175,22.7720181 55.8224076,23.1102164 55.9356377,23.4484147 C56.0488677,23.786613 56.2753278,24.1248113 56.2753278,24.4630096 C56.2753278,24.8012079 56.2753278,25.1394061 56.1620977,25.4776044 C56.0488677,25.8158027 55.8224076,26.0412682 55.5959476,26.3794665 C55.3694875,26.6049321 55.0297974,26.8303976 54.6901073,27.0558631 C54.3504172,27.2813286 54.0107271,27.3940614 53.6710369,27.5067942 C53.3313468,27.6195269 52.9916567,27.6195269 52.6519666,27.5067942 C52.3122765,27.3940614 51.9725864,27.2813286 51.7461263,27.1685959 C51.5196663,26.9431303 51.2932062,26.7176648 51.0667461,26.3794665 Z M52.4255066,25.5903372 C52.6519666,25.9285355 52.8784267,26.0412682 53.1048868,26.154001 C53.4445769,26.2667338 53.6710369,26.154001 54.1239571,25.9285355 C54.4636472,25.70307 54.6901073,25.4776044 54.8033373,25.1394061 C54.9165673,24.8012079 54.8033373,24.5757423 54.6901073,24.237544 C54.5768772,23.8993457 54.2371871,23.786613 54.0107271,23.6738802 C53.6710369,23.5611475 53.4445769,23.6738802 52.9916567,23.8993457 C52.6519666,24.1248113 52.4255066,24.3502768 52.3122765,24.6884751 C52.1990465,25.0266734 52.3122765,25.2521389 52.4255066,25.5903372 Z" id="Shape"></path>
                    <path d="M62.1632896,22.6592854 L60.9177592,23.4484147 L60.5780691,22.8847509 L60.5780691,22.8847509 C60.5780691,22.9974836 60.5780691,23.1102164 60.5780691,23.2229492 C60.5780691,23.3356819 60.4648391,23.4484147 60.4648391,23.5611475 C60.3516091,23.6738802 60.3516091,23.786613 60.125149,23.8993457 C60.011919,24.0120785 59.8986889,24.1248113 59.6722288,24.237544 C59.3325387,24.4630096 58.9928486,24.5757423 58.7663886,24.5757423 C58.5399285,24.5757423 58.2002384,24.5757423 58.0870083,24.4630096 C57.8605483,24.3502768 57.6340882,24.237544 57.5208582,24.0120785 C57.2943981,23.786613 57.1811681,23.5611475 57.067938,23.3356819 L55.8224076,21.0810267 L57.1811681,20.2918973 L58.3134684,22.3210871 C58.4266985,22.4338198 58.4266985,22.5465526 58.5399285,22.6592854 C58.6531585,22.7720181 58.7663886,22.8847509 58.7663886,22.9974836 C58.7663886,23.1102164 58.9928486,23.1102164 59.1060787,23.1102164 C59.2193087,23.1102164 59.4457688,23.1102164 59.5589988,22.9974836 C59.6722288,22.8847509 59.8986889,22.7720181 59.8986889,22.6592854 C60.011919,22.5465526 60.011919,22.4338198 60.011919,22.3210871 C60.011919,22.2083543 60.011919,22.0956215 59.8986889,21.9828888 C59.7854589,21.870156 59.7854589,21.7574233 59.6722288,21.5319577 L58.5399285,19.502768 L59.8986889,18.7136387 L62.1632896,22.6592854 Z" id="Path"></path>
                    <path d="M60.8045292,18.0372421 L62.1632896,17.2481127 L62.5029797,17.9245093 L62.5029797,17.9245093 C62.5029797,17.586311 62.6162098,17.3608455 62.7294398,17.0226472 C62.8426698,16.7971817 63.0691299,16.5717162 63.40882,16.4589834 C63.5220501,16.4589834 63.5220501,16.3462506 63.6352801,16.3462506 C63.7485101,16.3462506 63.7485101,16.2335179 63.8617402,16.2335179 L64.5411204,17.3608455 C64.4278903,17.3608455 64.3146603,17.4735783 64.2014303,17.4735783 C64.0882002,17.4735783 63.9749702,17.586311 63.8617402,17.586311 C63.6352801,17.6990438 63.40882,17.9245093 63.29559,18.0372421 C63.18236,18.1499748 63.0691299,18.3754404 63.0691299,18.4881731 C63.0691299,18.6009059 63.0691299,18.8263714 63.18236,19.0518369 C63.29559,19.2773025 63.29559,19.3900352 63.40882,19.6155008 L64.4278903,21.3064922 L63.0691299,22.0956215 L60.8045292,18.0372421 Z" id="Path"></path>
                    <path d="M70.8820024,13.9788626 C70.7687723,13.9788626 70.6555423,13.8661298 70.4290822,13.8661298 C70.3158522,13.8661298 70.0893921,13.9788626 69.9761621,13.9788626 C69.636472,14.2043281 69.4100119,14.4297937 69.2967819,14.7679919 C69.1835518,15.1061902 69.2967819,15.3316558 69.4100119,15.6698541 C69.523242,16.0080523 69.8629321,16.1207851 70.0893921,16.2335179 C70.4290822,16.3462506 70.6555423,16.2335179 71.1084625,16.0080523 C71.2216925,15.8953196 71.3349225,15.7825868 71.4481526,15.6698541 C71.5613826,15.5571213 71.5613826,15.4443885 71.5613826,15.3316558 L72.920143,15.6698541 C72.806913,16.0080523 72.693683,16.2335179 72.4672229,16.5717162 C72.2407628,16.7971817 72.0143027,17.0226472 71.6746126,17.13538 C71.3349225,17.3608455 70.9952324,17.4735783 70.6555423,17.586311 C70.3158522,17.6990438 69.9761621,17.6990438 69.636472,17.586311 C69.2967819,17.4735783 68.9570918,17.3608455 68.7306317,17.2481127 C68.5041716,17.13538 68.1644815,16.7971817 68.0512515,16.4589834 C67.8247914,16.1207851 67.7115614,15.7825868 67.7115614,15.4443885 C67.7115614,15.1061902 67.7115614,14.7679919 67.8247914,14.4297937 C67.9380215,14.0915954 68.1644815,13.8661298 68.3909416,13.5279316 C68.6174017,13.302466 68.9570918,13.0770005 69.2967819,12.851535 C69.523242,12.7388022 69.8629321,12.6260695 70.2026222,12.5133367 C70.5423123,12.4006039 70.8820024,12.4006039 71.2216925,12.5133367 L70.8820024,13.9788626 Z" id="Path"></path>
                    <path d="M71.5613826,8.90588827 L73.1466031,11.7242073 L73.1466031,11.7242073 C73.1466031,11.6114746 73.1466031,11.4987418 73.1466031,11.3860091 C73.1466031,11.2732763 73.2598331,11.1605435 73.2598331,11.0478108 C73.3730632,10.935078 73.3730632,10.8223452 73.4862932,10.7096125 C73.5995232,10.5968797 73.7127533,10.484147 73.9392133,10.3714142 C74.2789035,10.1459487 74.6185936,10.0332159 74.8450536,10.0332159 C75.0715137,10.0332159 75.4112038,10.0332159 75.5244338,10.1459487 C75.7508939,10.2586814 75.977354,10.3714142 76.090584,10.5968797 C76.2038141,10.8223452 76.4302741,11.0478108 76.5435042,11.2732763 L77.7890346,13.5279316 L76.4302741,14.3170609 L75.2979738,12.2878712 C75.1847437,12.1751384 75.1847437,12.0624056 75.0715137,11.9496729 C74.9582837,11.8369401 74.8450536,11.7242073 74.8450536,11.6114746 C74.7318236,11.4987418 74.6185936,11.4987418 74.5053635,11.4987418 C74.3921335,11.4987418 74.1656734,11.4987418 74.0524434,11.6114746 C73.8259833,11.7242073 73.7127533,11.8369401 73.7127533,11.9496729 C73.5995232,12.0624056 73.5995232,12.1751384 73.5995232,12.2878712 C73.5995232,12.4006039 73.5995232,12.5133367 73.7127533,12.6260695 C73.7127533,12.7388022 73.8259833,12.851535 73.9392133,13.0770005 L75.0715137,15.1061902 L73.7127533,15.8953196 L70.0893921,9.58228485 L71.5613826,8.90588827 Z" id="Path"></path>
                    <path d="M77.6758045,11.0478108 C77.4493445,10.7096125 77.3361144,10.3714142 77.3361144,10.0332159 C77.3361144,9.69501761 77.3361144,9.35681933 77.4493445,9.01862104 C77.5625745,8.68042275 77.7890346,8.45495722 78.0154946,8.11675893 C78.2419547,7.89129341 78.5816448,7.66582788 78.9213349,7.44036236 C79.261025,7.21489683 79.6007151,7.10216407 79.9404052,6.9894313 C80.2800954,6.87669854 80.6197855,6.87669854 80.9594756,6.9894313 C81.2991657,7.10216407 81.6388558,7.21489683 81.8653159,7.32762959 C82.0917759,7.55309512 82.431466,7.77856064 82.5446961,8.11675893 C82.7711561,8.45495722 82.8843862,8.79315551 82.8843862,9.1313538 C82.8843862,9.46955209 82.8843862,9.80775038 82.7711561,10.1459487 C82.6579261,10.484147 82.431466,10.7096125 82.205006,11.0478108 C81.9785459,11.2732763 81.6388558,11.4987418 81.2991657,11.7242073 C80.9594756,11.9496729 80.6197855,12.0624056 80.2800954,12.1751384 C79.9404052,12.2878712 79.6007151,12.2878712 79.261025,12.1751384 C78.9213349,12.0624056 78.5816448,11.9496729 78.3551847,11.8369401 C78.1287247,11.7242073 77.9022646,11.3860091 77.6758045,11.0478108 Z M79.034565,10.2586814 C79.261025,10.5968797 79.4874851,10.7096125 79.7139452,10.8223452 C80.0536353,10.935078 80.2800954,10.8223452 80.7330155,10.5968797 C81.0727056,10.3714142 81.2991657,10.1459487 81.4123957,9.80775038 C81.5256257,9.46955209 81.4123957,9.24408656 81.2991657,8.90588827 C81.1859356,8.56768998 80.8462455,8.45495722 80.6197855,8.34222446 C80.2800954,8.2294917 80.0536353,8.34222446 79.6007151,8.56768998 C79.261025,8.79315551 79.034565,9.01862104 78.9213349,9.35681933 C78.8081049,9.69501761 78.9213349,9.92048314 79.034565,10.2586814 Z" id="Shape"></path>
                    <path d="M81.4123957,4.50931052 C81.2991657,4.28384499 81.2991657,4.05837947 81.2991657,3.83291394 C81.4123957,3.60744841 81.5256257,3.38198289 81.7520858,3.26925013 C81.9785459,3.15651736 82.205006,3.15651736 82.431466,3.15651736 C82.6579261,3.15651736 82.8843862,3.38198289 82.9976162,3.49471565 C83.1108462,3.72018118 83.1108462,3.9456467 83.1108462,4.17111223 C82.9976162,4.39657776 82.8843862,4.62204328 82.6579261,4.73477604 C82.431466,4.84750881 82.205006,4.84750881 81.9785459,4.84750881 C81.6388558,4.84750881 81.5256257,4.73477604 81.4123957,4.50931052 Z M82.205006,5.74937091 L83.5637664,4.96024157 L85.9415971,9.01862104 L84.5828367,9.80775038 L82.205006,5.74937091 Z" id="Shape"></path>
                    <path d="M88.3194279,3.9456467 C88.2061979,3.9456467 88.0929678,3.83291394 87.8665077,3.83291394 C87.6400477,3.83291394 87.5268176,3.9456467 87.4135876,3.9456467 C87.0738975,4.17111223 86.8474374,4.39657776 86.7342074,4.73477604 C86.6209774,5.07297433 86.7342074,5.29843986 86.8474374,5.63663815 C86.9606675,5.97483644 87.3003576,6.0875692 87.5268176,6.20030196 C87.8665077,6.31303473 88.0929678,6.20030196 88.545888,5.97483644 C88.659118,5.86210367 88.772348,5.74937091 88.8855781,5.63663815 C88.9988081,5.52390539 88.9988081,5.41117262 88.9988081,5.29843986 L90.3575685,5.63663815 C90.2443385,5.97483644 90.1311085,6.20030196 89.9046484,6.53850025 C89.6781883,6.76396578 89.4517282,6.9894313 89.1120381,7.10216407 C88.772348,7.32762959 88.4326579,7.44036236 88.0929678,7.55309512 C87.7532777,7.66582788 87.4135876,7.66582788 87.0738975,7.55309512 C86.7342074,7.44036236 86.3945173,7.32762959 86.1680572,7.21489683 C85.9415971,6.9894313 85.601907,6.76396578 85.488677,6.42576749 C85.2622169,6.0875692 85.1489869,5.74937091 85.1489869,5.41117262 C85.1489869,5.07297433 85.1489869,4.73477604 85.2622169,4.39657776 C85.375447,4.05837947 85.601907,3.83291394 85.8283671,3.49471565 C86.0548272,3.26925013 86.3945173,3.0437846 86.7342074,2.81831907 C86.9606675,2.70558631 87.3003576,2.59285355 87.6400477,2.48012079 C87.9797378,2.36738802 88.3194279,2.36738802 88.659118,2.48012079 L88.3194279,3.9456467 Z" id="Path"></path>
                    <path d="M95,2.81831907 C94.88677,3.15651736 94.7735399,3.60744841 94.5470799,3.83291394 C94.3206198,4.17111223 93.9809297,4.39657776 93.6412396,4.62204328 C93.3015495,4.84750881 92.9618594,4.96024157 92.6221692,5.07297433 C92.2824791,5.1857071 91.942789,5.1857071 91.6030989,5.07297433 C91.2634088,4.96024157 90.9237187,4.84750881 90.6972586,4.73477604 C90.4707986,4.50931052 90.1311085,4.28384499 90.0178784,3.9456467 C89.9046484,3.60744841 89.6781883,3.26925013 89.6781883,2.93105184 C89.6781883,2.59285355 89.6781883,2.25465526 89.7914184,1.91645697 C89.9046484,1.57825868 90.1311085,1.35279316 90.3575685,1.01459487 C90.5840286,0.789129341 90.9237187,0.563663815 91.2634088,0.338198289 C91.6030989,0.112732763 91.942789,0 92.1692491,0 C92.5089392,0 92.7353993,0 93.0750894,0 C93.4147795,0.112732763 93.6412396,0.225465526 93.8676996,0.450931052 C94.0941597,0.676396578 94.3206198,0.901862104 94.5470799,1.24006039 L94.7735399,1.57825868 L91.6030989,3.38198289 C91.829559,3.60744841 92.0560191,3.72018118 92.2824791,3.72018118 C92.5089392,3.72018118 92.8486293,3.72018118 93.0750894,3.49471565 C93.3015495,3.38198289 93.4147795,3.26925013 93.5280095,3.0437846 C93.6412396,2.81831907 93.6412396,2.70558631 93.7544696,2.48012079 L95,2.81831907 Z M92.8486293,1.69099144 C92.7353993,1.46552592 92.5089392,1.35279316 92.2824791,1.24006039 C92.0560191,1.12732763 91.829559,1.24006039 91.4898689,1.35279316 C91.3766389,1.46552592 91.2634088,1.57825868 91.1501788,1.69099144 C91.0369487,1.80372421 91.0369487,1.91645697 90.9237187,2.02918973 C90.9237187,2.1419225 90.8104887,2.25465526 90.9237187,2.36738802 C90.9237187,2.48012079 90.9237187,2.59285355 91.0369487,2.70558631 L92.8486293,1.69099144 Z" id="Shape"></path>
                </g>
                <g id="Group" transform="translate(181.000000, 115.006007)" fill="#000000">
                    <path d="M2.04,25.2777778 C2.49333333,25.0490196 2.83333333,24.8202614 3.4,24.7058824 C3.85333333,24.5915033 4.42,24.4771242 4.87333333,24.5915033 L4.53333333,26.5359477 C4.30666667,26.4215686 3.96666667,26.4215686 3.74,26.5359477 C3.51333333,26.6503268 3.17333333,26.6503268 2.94666667,26.7647059 L3.96666667,28.5947712 L5.21333333,28.251634 C5.78,28.1372549 6.34666667,28.1372549 6.8,28.3660131 C7.25333333,28.5947712 7.70666667,28.9379085 8.04666667,29.5098039 C8.27333333,29.9673203 8.38666667,30.3104575 8.5,30.7679739 C8.5,31.1111111 8.5,31.5686275 8.38666667,31.9117647 C8.27333333,32.254902 8.04666667,32.5980392 7.82,32.9411765 C7.59333333,33.2843137 7.25333333,33.5130719 6.91333333,33.7418301 L7.36666667,34.5424837 L6.68666667,35 L6.23333333,34.1993464 C5.78,34.4281046 5.21333333,34.6568627 4.64666667,34.8856209 C4.08,35 3.51333333,35 2.94666667,34.8856209 L3.28666667,32.8267974 C3.62666667,32.9411765 3.96666667,33.0555556 4.30666667,32.9411765 C4.64666667,32.9411765 4.98666667,32.8267974 5.32666667,32.5980392 L4.19333333,30.6535948 L3.28666667,30.8823529 C2.60666667,30.996732 2.04,30.996732 1.58666667,30.8823529 C1.13333333,30.7679739 0.68,30.3104575 0.34,29.7385621 C0.113333333,29.3954248 0,29.0522876 0,28.5947712 C0,28.251634 0,27.9084967 0.113333333,27.5653595 C0.226666667,27.2222222 0.453333333,26.879085 0.68,26.5359477 C0.906666667,26.1928105 1.13333333,25.9640523 1.47333333,25.7352941 L1.02,24.9346405 L1.7,24.4771242 L2.04,25.2777778 Z M2.26666667,27.3366013 C2.04,27.4509804 1.92666667,27.6797386 1.81333333,27.9084967 C1.7,28.1372549 1.7,28.3660131 1.92666667,28.5947712 C2.04,28.8235294 2.15333333,28.9379085 2.26666667,28.9379085 C2.38,29.0522876 2.49333333,29.0522876 2.60666667,29.0522876 C2.72,29.0522876 2.83333333,29.0522876 2.94666667,29.0522876 C3.06,29.0522876 3.17333333,29.0522876 3.17333333,28.9379085 L2.26666667,27.3366013 Z M6.00666667,32.1405229 C6.12,32.0261438 6.23333333,31.9117647 6.23333333,31.7973856 C6.34666667,31.6830065 6.34666667,31.5686275 6.46,31.4542484 C6.46,31.3398693 6.57333333,31.2254902 6.57333333,31.1111111 C6.57333333,30.996732 6.57333333,30.8823529 6.46,30.7679739 C6.34666667,30.6535948 6.34666667,30.5392157 6.23333333,30.5392157 C6.12,30.4248366 6.00666667,30.4248366 5.89333333,30.4248366 C5.78,30.4248366 5.66666667,30.4248366 5.55333333,30.4248366 C5.44,30.4248366 5.32666667,30.4248366 5.21333333,30.4248366 L4.98666667,30.4248366 L6.00666667,32.1405229 Z" id="Shape"></path>
                    <polygon id="Path" points="9.40666667 23.7908497 8.61333333 26.1928105 7.02666667 25.620915 8.27333333 21.8464052 9.86 20.9313725 14.62 29.1666667 13.0333333 30.0816993"></polygon>
                    <path d="M14.3933333,23.7908497 C14.1666667,23.3333333 13.8266667,22.7614379 13.7133333,22.1895425 C13.4866667,21.6176471 13.3733333,21.0457516 13.3733333,20.5882353 C13.3733333,20.0163399 13.4866667,19.5588235 13.7133333,19.1013072 C13.94,18.6437908 14.3933333,18.1862745 14.96,17.8431373 C15.5266667,17.5 16.0933333,17.3856209 16.66,17.3856209 C17.2266667,17.3856209 17.68,17.6143791 18.1333333,17.8431373 C18.5866667,18.0718954 19.04,18.5294118 19.38,18.9869281 C19.72,19.4444444 20.06,19.9019608 20.4,20.3594771 C20.6266667,20.8169935 20.9666667,21.3888889 21.08,21.9607843 C21.3066667,22.5326797 21.42,23.1045752 21.42,23.5620915 C21.42,24.0196078 21.3066667,24.5915033 21.08,25.0490196 C20.8533333,25.5065359 20.4,25.9640523 19.8333333,26.3071895 C19.2666667,26.6503268 18.7,26.7647059 18.1333333,26.7647059 C17.5666667,26.7647059 17.1133333,26.5359477 16.66,26.3071895 C16.2066667,26.0784314 15.7533333,25.620915 15.4133333,25.1633987 C14.96,24.7058824 14.62,24.248366 14.3933333,23.7908497 Z M15.98,22.7614379 C16.0933333,22.9901961 16.2066667,23.2189542 16.4333333,23.5620915 C16.66,23.9052288 16.8866667,24.1339869 17.1133333,24.3627451 C17.34,24.5915033 17.5666667,24.7058824 17.9066667,24.8202614 C18.1333333,24.9346405 18.4733333,24.8202614 18.8133333,24.7058824 C19.1533333,24.4771242 19.2666667,24.248366 19.38,24.0196078 C19.4933333,23.6764706 19.38,23.4477124 19.38,23.1045752 C19.2666667,22.7614379 19.1533333,22.4183007 19.04,22.1895425 C18.9266667,21.8464052 18.7,21.6176471 18.5866667,21.3888889 C18.4733333,21.1601307 18.36,20.9313725 18.1333333,20.5882353 C17.9066667,20.245098 17.68,20.0163399 17.4533333,19.7875817 C17.2266667,19.5588235 17,19.4444444 16.66,19.3300654 C16.4333333,19.2156863 16.0933333,19.3300654 15.7533333,19.4444444 C15.4133333,19.6732026 15.3,19.9019608 15.1866667,20.130719 C15.1866667,20.4738562 15.1866667,20.7026144 15.1866667,21.0457516 C15.3,21.3888889 15.4133333,21.7320261 15.5266667,21.9607843 C15.7533333,22.3039216 15.8666667,22.5326797 15.98,22.7614379 Z" id="Shape"></path>
                    <path d="M20.9666667,19.9019608 C20.74,19.4444444 20.4,18.872549 20.2866667,18.3006536 C20.06,17.7287582 19.9466667,17.1568627 19.9466667,16.6993464 C19.9466667,16.127451 20.06,15.6699346 20.2866667,15.2124183 C20.5133333,14.754902 20.9666667,14.2973856 21.5333333,13.9542484 C22.1,13.6111111 22.6666667,13.496732 23.2333333,13.496732 C23.8,13.496732 24.2533333,13.7254902 24.7066667,13.9542484 C25.16,14.1830065 25.6133333,14.6405229 25.9533333,15.0980392 C26.2933333,15.5555556 26.6333333,16.0130719 26.9733333,16.4705882 C27.3133333,16.9281046 27.54,17.5 27.6533333,18.0718954 C27.88,18.6437908 27.9933333,19.2156863 27.9933333,19.6732026 C27.9933333,20.245098 27.88,20.7026144 27.6533333,21.1601307 C27.4266667,21.6176471 26.9733333,22.0751634 26.4066667,22.4183007 C25.84,22.7614379 25.2733333,22.875817 24.7066667,22.875817 C24.14,22.875817 23.6866667,22.6470588 23.2333333,22.4183007 C22.78,22.1895425 22.3266667,21.7320261 21.9866667,21.2745098 C21.5333333,20.8169935 21.1933333,20.3594771 20.9666667,19.9019608 Z M22.6666667,18.872549 C22.78,19.1013072 22.8933333,19.3300654 23.12,19.6732026 C23.3466667,20.0163399 23.5733333,20.245098 23.8,20.4738562 C24.0266667,20.7026144 24.2533333,20.8169935 24.5933333,20.9313725 C24.82,21.0457516 25.16,20.9313725 25.5,20.8169935 C25.84,20.5882353 25.9533333,20.3594771 26.0666667,20.130719 C26.18,19.7875817 26.0666667,19.5588235 26.0666667,19.2156863 C25.9533333,18.872549 25.84,18.5294118 25.7266667,18.3006536 C25.6133333,17.9575163 25.3866667,17.7287582 25.2733333,17.5 C25.16,17.2712418 25.0466667,17.0424837 24.82,16.6993464 C24.5933333,16.3562092 24.3666667,16.127451 24.14,15.8986928 C23.9133333,15.6699346 23.6866667,15.5555556 23.3466667,15.4411765 C23.0066667,15.3267974 22.78,15.4411765 22.44,15.5555556 C22.1,15.7843137 21.9866667,16.0130719 21.8733333,16.2418301 C21.76,16.4705882 21.8733333,16.8137255 21.8733333,17.1568627 C21.9866667,17.5 22.1,17.8431373 22.2133333,18.0718954 C22.3266667,18.3006536 22.44,18.7581699 22.6666667,18.872549 Z" id="Shape"></path>
                    <path d="M27.54,16.0130719 C27.3133333,15.5555556 26.9733333,14.9836601 26.86,14.4117647 C26.6333333,13.8398693 26.52,13.2679739 26.52,12.8104575 C26.52,12.2385621 26.6333333,11.7810458 26.86,11.3235294 C27.0866667,10.8660131 27.54,10.4084967 28.1066667,10.0653595 C28.6733333,9.72222222 29.24,9.60784314 29.8066667,9.60784314 C30.3733333,9.60784314 30.8266667,9.83660131 31.28,10.0653595 C31.7333333,10.2941176 32.1866667,10.751634 32.5266667,11.2091503 C32.8666667,11.6666667 33.2066667,12.124183 33.5466667,12.5816993 C33.8866667,13.0392157 34.1133333,13.6111111 34.2266667,14.1830065 C34.4533333,14.754902 34.5666667,15.3267974 34.5666667,15.7843137 C34.5666667,16.3562092 34.4533333,16.8137255 34.2266667,17.2712418 C34,17.7287582 33.5466667,18.1862745 32.98,18.5294118 C32.4133333,18.872549 31.8466667,18.9869281 31.28,18.9869281 C30.7133333,18.9869281 30.26,18.7581699 29.8066667,18.5294118 C29.3533333,18.3006536 28.9,17.8431373 28.56,17.3856209 C28.1066667,17.0424837 27.7666667,16.5849673 27.54,16.0130719 Z M29.24,15.0980392 C29.3533333,15.3267974 29.4666667,15.5555556 29.6933333,15.8986928 C29.92,16.2418301 30.1466667,16.4705882 30.3733333,16.6993464 C30.6,16.9281046 30.8266667,17.0424837 31.1666667,17.1568627 C31.3933333,17.2712418 31.7333333,17.1568627 32.0733333,17.0424837 C32.4133333,16.8137255 32.5266667,16.5849673 32.64,16.3562092 C32.7533333,16.0130719 32.64,15.7843137 32.64,15.4411765 C32.5266667,15.0980392 32.4133333,14.754902 32.3,14.5261438 C32.1866667,14.1830065 31.96,13.9542484 31.8466667,13.7254902 C31.7333333,13.496732 31.62,13.2679739 31.3933333,12.9248366 C31.1666667,12.5816993 30.94,12.3529412 30.7133333,12.124183 C30.4866667,11.8954248 30.26,11.7810458 29.92,11.6666667 C29.6933333,11.5522876 29.3533333,11.6666667 29.0133333,11.7810458 C28.6733333,12.0098039 28.56,12.2385621 28.4466667,12.4673203 C28.4466667,12.8104575 28.4466667,13.0392157 28.4466667,13.3823529 C28.56,13.7254902 28.6733333,14.0686275 28.7866667,14.2973856 C28.9,14.6405229 29.1266667,14.869281 29.24,15.0980392 Z" id="Shape"></path>
                    <path d="M36.1533333,15.2124183 C36.04,15.0980392 36.04,14.869281 36.04,14.754902 C36.04,14.6405229 36.04,14.4117647 36.04,14.2973856 C36.04,14.1830065 36.1533333,13.9542484 36.2666667,13.8398693 C36.38,13.7254902 36.4933333,13.6111111 36.6066667,13.496732 C36.72,13.3823529 36.9466667,13.3823529 37.06,13.3823529 C37.1733333,13.3823529 37.4,13.3823529 37.5133333,13.3823529 C37.6266667,13.3823529 37.8533333,13.496732 37.9666667,13.6111111 C38.08,13.7254902 38.1933333,13.8398693 38.3066667,13.9542484 C38.42,14.0686275 38.42,14.2973856 38.42,14.4117647 C38.42,14.5261438 38.42,14.754902 38.42,14.869281 C38.42,14.9836601 38.3066667,15.2124183 38.1933333,15.3267974 C38.08,15.4411765 37.9666667,15.5555556 37.8533333,15.6699346 C37.74,15.7843137 37.5133333,15.7843137 37.4,15.7843137 C37.2866667,15.7843137 37.06,15.7843137 36.9466667,15.7843137 C36.8333333,15.7843137 36.6066667,15.6699346 36.4933333,15.5555556 C36.38,15.4411765 36.2666667,15.3267974 36.1533333,15.2124183 Z" id="Path"></path>
                    <path d="M37.4,10.2941176 C37.1733333,9.83660131 36.8333333,9.26470588 36.72,8.69281046 C36.4933333,8.12091503 36.38,7.54901961 36.38,7.09150327 C36.38,6.51960784 36.4933333,6.0620915 36.72,5.60457516 C36.9466667,5.14705882 37.4,4.68954248 37.9666667,4.34640523 C38.5333333,4.00326797 39.1,3.88888889 39.6666667,3.88888889 C40.2333333,3.88888889 40.6866667,4.11764706 41.14,4.34640523 C41.5933333,4.5751634 42.0466667,5.03267974 42.3866667,5.49019608 C42.7266667,5.94771242 43.0666667,6.40522876 43.4066667,6.8627451 C43.7466667,7.32026144 43.9733333,7.89215686 44.0866667,8.46405229 C44.3133333,9.03594771 44.4266667,9.60784314 44.4266667,10.0653595 C44.4266667,10.6372549 44.3133333,11.0947712 44.0866667,11.5522876 C43.86,12.0098039 43.4066667,12.4673203 42.84,12.8104575 C42.2733333,13.1535948 41.7066667,13.2679739 41.14,13.2679739 C40.5733333,13.2679739 40.12,13.0392157 39.6666667,12.8104575 C39.2133333,12.5816993 38.76,12.124183 38.42,11.6666667 C38.08,11.2091503 37.74,10.751634 37.4,10.2941176 Z M39.1,9.26470588 C39.2133333,9.49346405 39.3266667,9.72222222 39.5533333,10.0653595 C39.78,10.4084967 40.0066667,10.6372549 40.2333333,10.8660131 C40.46,11.0947712 40.6866667,11.2091503 41.0266667,11.3235294 C41.2533333,11.4379085 41.5933333,11.3235294 41.9333333,11.2091503 C42.2733333,10.9803922 42.3866667,10.751634 42.5,10.5228758 C42.6133333,10.1797386 42.5,9.95098039 42.5,9.60784314 C42.3866667,9.26470588 42.2733333,8.92156863 42.16,8.69281046 C42.0466667,8.3496732 41.82,8.12091503 41.7066667,7.89215686 C41.5933333,7.66339869 41.48,7.43464052 41.2533333,7.09150327 C41.0266667,6.74836601 40.8,6.51960784 40.5733333,6.29084967 C40.3466667,6.0620915 40.12,5.94771242 39.78,5.83333333 C39.5533333,5.71895425 39.2133333,5.83333333 38.8733333,5.94771242 C38.5333333,6.17647059 38.42,6.40522876 38.3066667,6.63398693 C38.3066667,6.97712418 38.3066667,7.20588235 38.3066667,7.54901961 C38.42,7.89215686 38.5333333,8.23529412 38.6466667,8.46405229 C38.8733333,8.80718954 38.9866667,9.1503268 39.1,9.26470588 Z" id="Shape"></path>
                    <path d="M43.9733333,6.40522876 C43.7466667,5.94771242 43.4066667,5.37581699 43.2933333,4.80392157 C43.0666667,4.23202614 42.9533333,3.66013072 42.9533333,3.20261438 C42.9533333,2.63071895 43.0666667,2.17320261 43.2933333,1.71568627 C43.52,1.25816993 43.9733333,0.800653595 44.54,0.45751634 C45.1066667,0.114379085 45.6733333,0 46.24,0 C46.8066667,0 47.26,0.22875817 47.7133333,0.45751634 C48.1666667,0.68627451 48.62,1.14379085 48.96,1.60130719 C49.3,2.05882353 49.64,2.51633987 49.98,2.97385621 C50.2066667,3.43137255 50.5466667,4.00326797 50.66,4.5751634 C50.8866667,5.14705882 51,5.71895425 51,6.17647059 C51,6.74836601 50.8866667,7.20588235 50.66,7.66339869 C50.4333333,8.12091503 49.98,8.57843137 49.4133333,8.92156863 C48.8466667,9.26470588 48.28,9.37908497 47.7133333,9.37908497 C47.1466667,9.37908497 46.6933333,9.1503268 46.24,8.92156863 C45.7866667,8.69281046 45.3333333,8.23529412 44.9933333,7.77777778 C44.6533333,7.43464052 44.3133333,6.97712418 43.9733333,6.40522876 Z M45.6733333,5.49019608 C45.7866667,5.71895425 45.9,5.94771242 46.1266667,6.29084967 C46.3533333,6.63398693 46.58,6.8627451 46.8066667,7.09150327 C47.0333333,7.32026144 47.26,7.43464052 47.6,7.54901961 C47.8266667,7.66339869 48.1666667,7.54901961 48.5066667,7.43464052 C48.8466667,7.20588235 48.96,6.97712418 49.0733333,6.74836601 C49.1866667,6.40522876 49.0733333,6.17647059 49.0733333,5.83333333 C48.96,5.49019608 48.8466667,5.14705882 48.7333333,4.91830065 C48.62,4.5751634 48.3933333,4.34640523 48.28,4.11764706 C48.1666667,3.88888889 48.0533333,3.66013072 47.8266667,3.31699346 C47.6,2.97385621 47.3733333,2.74509804 47.1466667,2.51633987 C46.92,2.2875817 46.6933333,2.17320261 46.3533333,2.05882353 C46.0133333,1.94444444 45.7866667,2.05882353 45.4466667,2.17320261 C45.1066667,2.40196078 44.9933333,2.63071895 44.88,2.85947712 C44.7666667,3.08823529 44.88,3.43137255 44.88,3.7745098 C44.9933333,4.11764706 45.1066667,4.46078431 45.22,4.68954248 C45.3333333,4.91830065 45.56,5.26143791 45.6733333,5.49019608 Z" id="Shape"></path>
                </g>
                <path d="M225.473677,160.786596 C225.250686,160.897567 225.027694,160.897567 224.804703,160.897567 C224.470216,160.786596 224.247224,160.675626 224.247224,160.342714 C223.578249,157.790392 222.909275,155.127099 221.571326,152.907688 C221.125343,153.462541 220.902351,154.128364 220.567864,155.016128 C219.675898,157.346509 219.118419,159.787861 218.783932,162.229213 C218.672436,162.673095 218.226453,163.006007 217.78047,163.006007 C217.334487,163.006007 217,162.562125 217,162.118243 C217.334487,159.56592 218.003462,157.013598 218.895428,154.572246 C219.341411,153.2406 220.010385,151.797983 221.236839,150.910218 C221.45983,150.799248 221.682822,150.688277 221.905813,150.688277 C222.128805,150.688277 222.351796,150.799248 222.463292,151.021189 C224.024232,153.129629 224.804703,155.681951 225.473677,158.123303 C225.91966,157.346509 226.254148,156.458745 226.588635,155.46001 C227.034618,154.017393 227.592097,152.574776 228.595558,151.3541 C228.81855,151.132159 229.041541,151.021189 229.376029,151.021189 C229.710516,151.021189 229.933507,151.132159 230.045003,151.3541 L231.494448,153.684482 C231.494448,153.684482 231.494448,153.795452 231.605944,153.795452 C231.71744,153.684482 231.828935,153.462541 231.940431,153.2406 L233.27838,150.244395 C233.389876,149.911483 233.724363,149.689542 234.05885,149.689542 C234.393338,149.689542 234.727825,149.800513 234.839321,150.022454 C235.062312,150.355366 235.396799,150.466336 235.731287,150.466336 C236.288765,150.466336 236.95774,150.355366 237.403723,149.911483 C238.407185,149.13469 238.853168,147.803043 239.299151,146.693338 C239.410647,146.249456 239.968125,145.916544 240.414108,146.027515 C240.860091,146.138485 241.083083,146.582367 240.971587,147.026249 C240.525604,148.468866 239.85663,150.022454 238.518681,151.132159 C237.626714,151.797983 236.511757,152.130894 235.396799,152.130894 C235.062312,152.130894 234.727825,152.019924 234.504833,151.908953 L233.612867,153.906423 C233.055389,155.238069 232.051927,155.903892 231.048465,155.570981 C230.490986,155.34904 230.267995,155.016128 230.045003,154.683217 L229.264533,153.462541 C228.930046,154.239334 228.595558,155.016128 228.261071,155.903892 C227.703592,157.56845 227.146114,159.233009 225.808165,160.564655 C225.696669,160.786596 225.585173,160.786596 225.473677,160.786596 Z" id="Path" fill="#000000"></path>
                <rect id="Rectangle" fill="#DC1E8A" x="107" y="195.006007" width="140" height="96"></rect>
                <rect id="Rectangle" fill="#F391BC" x="160" y="195.006007" width="35" height="96"></rect>
                <g id="Group" transform="translate(59.000000, 0.000000)">
                    <polygon id="Rectangle" fill="#DC1E8A" transform="translate(63.705195, 68.483487) rotate(-48.133310) translate(-63.705195, -68.483487) " points="-14.0079965 52.5852217 141.416888 52.5925497 141.418387 84.3817522 -14.0064977 84.3744242"></polygon>
                    <polygon id="Path" fill="#891C56" points="134 35.4477824 41.353306 140.006007 23.5279004 137.054309 127.301281 21.2569267"></polygon>
                    <polygon id="Rectangle" fill="#F391BC" transform="translate(63.013916, 67.870686) rotate(-48.133310) translate(-63.013916, -67.870686) " points="45.5292458 51.123764 80.4970066 51.1254126 80.4985856 84.6176082 45.5308249 84.6159595"></polygon>
                    <path d="M32.9515225,82.2208426 C27.6152546,83.4696379 21.7112986,82.1073158 17.2833316,78.1338762 L15.0125793,76.090393 C11.4929132,72.9116413 9.44923615,68.5976212 9.1086233,63.8294937 C8.88154807,59.0613662 10.4710747,54.5202924 13.6501279,51.0009602 L18.5322454,45.5516716 C24.7768142,38.5130072 35.5628876,37.6047924 42.829295,43.6217152 L42.9428326,43.7352421 L40.2179299,46.9139937 L43.0563702,43.8487689 L58.9516364,58.1531514 L42.2616069,76.771554 C39.7637794,79.6097252 36.4711886,81.5396815 32.9515225,82.2208426 Z M29.7724693,48.3898427 C27.9558674,48.8439501 26.1392656,49.7521649 24.8903518,51.2280138 L20.0082344,56.6773024 C18.3051701,58.4937319 17.5104068,60.8777957 17.6239444,63.3753863 C17.7374821,65.8729769 18.8728582,68.1435138 20.68946,69.8464165 L22.9602124,71.8898997 C26.8204913,75.295705 32.7244473,74.9551245 36.1305757,71.2087386 L47.257262,58.8343125 L37.6065647,50.2062722 C35.3358124,48.3898427 32.3838344,47.8222085 29.7724693,48.3898427 Z" id="Shape" fill="#F391BC"></path>
                    <path d="M50.7769281,61.2183762 L32.1567592,44.52993 C28.6370931,41.3511783 26.593416,37.0371582 26.2528032,32.2690307 C26.025728,27.5009032 27.6152546,22.9598294 30.7943078,19.4404972 L32.8379849,17.1699603 C36.0170381,13.6506281 40.3314675,11.6071449 45.1000473,11.2665643 C49.8686272,11.0395106 54.4101318,12.6288865 57.9297978,15.8076381 L63.3796034,20.6892925 C70.4189355,27.0467958 71.3272364,37.7183193 65.3097428,44.9840374 L65.0826676,45.211091 L65.0826676,45.211091 L50.7769281,61.2183762 Z M43.9646712,19.8946046 C42.0345317,20.3487119 40.3314675,21.2569267 39.0825537,22.7327757 L37.0388766,25.0033126 C35.3358124,26.8197421 34.5410491,29.2038059 34.6545867,31.7013965 C34.7681243,34.1989871 35.9035005,36.469524 37.7201023,38.1724266 L50.0957024,49.2980575 L58.7245611,39.6482756 C61.7900767,35.7883629 61.3359263,30.2255475 57.589185,26.933269 L52.1393795,22.0516146 C50.3227776,20.3487119 47.9384877,19.554024 45.4406602,19.6675509 C44.9865097,19.7810777 44.4188216,19.7810777 43.9646712,19.8946046 Z M61.9036144,42.4864468 L63.3796034,43.7352421 L61.9036144,42.4864468 Z" id="Shape" fill="#F391BC"></path>
                </g>
                <path d="M210.694537,48.0060068 C208.617363,48.0060068 206.868163,46.4266172 206.540188,44.2831599 L203.04179,19.0129259 C202.713815,16.6438414 204.353689,14.3875706 206.649513,14.0491299 C208.945338,13.7106893 211.131837,15.4028925 211.459812,17.7719769 L214.95821,43.0422109 C215.286185,45.4112953 213.646311,47.6675662 211.350487,48.0060068 C211.131837,48.0060068 210.913187,48.0060068 210.694537,48.0060068 Z" id="Path" fill="#891C56"></path>
                <path d="M223.249219,91.0060068 C222.68874,91.0060068 222.12826,90.891279 221.679877,90.6618233 C219.437959,89.7440006 218.429096,87.2199881 219.325863,84.9254313 L225.715329,68.7488059 C226.612096,66.4542491 229.078205,65.4216986 231.320123,66.3395213 C233.562041,67.257344 234.570904,69.7813565 233.674137,72.0759133 L227.284671,88.2525387 C226.612096,89.9734563 224.930658,91.0060068 223.249219,91.0060068 Z" id="Path" fill="#ED1C24"></path>
                <path d="M226.306645,48.3487587 C225.957955,47.3191326 225.841725,46.2895064 226.306645,45.1454773 L235.372584,20.8920607 C236.186194,18.6040026 238.743254,17.4599735 241.067854,18.2607938 C243.392454,19.0616142 244.554754,21.6928811 243.741144,23.8665363 L234.675204,48.1199529 C233.861594,50.4080111 231.304535,51.5520402 228.979935,50.7512198 C227.701405,50.4080111 226.771565,49.4927878 226.306645,48.3487587 Z" id="Path" fill="#442D8B"></path>
                <path d="M97.3066449,267.348759 C96.9579549,266.319133 96.8417249,265.289506 97.3066449,264.145477 L106.372584,239.892061 C107.186194,237.604003 109.743254,236.459973 112.067854,237.260794 C114.392454,238.061614 115.554754,240.692881 114.741144,242.866536 L105.675204,267.119953 C104.861594,269.408011 102.304535,270.55204 99.9799347,269.75122 C98.7014048,269.408011 97.7715648,268.492788 97.3066449,267.348759 Z" id="Path-Copy" fill="#442D8B" transform="translate(106.000000, 253.506007) rotate(25.000000) translate(-106.000000, -253.506007) "></path>
                <path d="M49.7876112,99.4805818 L31.9710778,95.1873015 C28.982498,94.4167128 25.9939182,96.1780585 25.1893006,99.0402453 C24.384683,101.902432 26.223809,104.764619 29.2123888,105.535208 L47.0289222,109.828488 C47.2588129,109.828488 47.3737583,109.938572 47.6036491,109.938572 C50.3623381,110.378909 53.1210271,108.617563 53.8106994,105.975544 C54.615317,103.113357 52.776191,100.251171 49.7876112,99.4805818 Z" id="Path" fill="#F391BC"></path>
                <circle id="Oval" fill="#8FCEA5" cx="236.5" cy="51.5060068" r="6.5"></circle>
                <circle id="Oval" fill="#442D8B" cx="162.5" cy="109.506007" r="6.5"></circle>
                <circle id="Oval" fill="#F391BC" cx="194.5" cy="75.5060068" r="4.5"></circle>
                <circle id="Oval" fill="#F391BC" cx="90.5" cy="190.506007" r="4.5"></circle>
                <circle id="Oval" fill="#891C56" cx="131.5" cy="138.506007" r="4.5"></circle>
                <circle id="Oval-Copy-2" fill="#891C56" cx="4.5" cy="275.506007" r="4.5"></circle>
                <circle id="Oval" fill="#8FCEA5" cx="47.5" cy="79.5060068" r="4.5"></circle>
                <circle id="Oval" fill="#8FCEA5" cx="175.5" cy="79.5060068" r="4.5"></circle>
                <path d="M71.4560515,162.368268 C71.1140129,161.687137 71,160.892485 71,160.097833 C71.2280257,157.713876 73.2802574,155.897529 75.6745277,156.01105 L92.8904713,157.259789 C95.2847416,157.486833 97.1089475,159.530224 96.9949347,161.914181 C96.7669089,164.298137 94.7146772,166.114485 92.3204069,166.000963 L75.1044634,164.752224 C73.5082832,164.752224 72.1401287,163.730529 71.4560515,162.368268 Z" id="Path" fill="#ED1C24"></path>
            </g>
        </g>
    </g>
</svg>